<?xml version="1.0" encoding="utf-8"?>
<svg xmlns="http://www.w3.org/2000/svg" xmlns:xlink="http://www.w3.org/1999/xlink" fill="rgba(251,220,97,1)" width="78px" height="78px" viewBox="0.999 1 45.536 45.552">
  <path d="M 45.98369598388672 41.94807815551758 L 44.20561218261719 39.87401580810547 C 42.67723083496094 38.0916862487793 40.99498748779297 36.44729614257813 39.17835998535156 34.95986175537109 L 36.81124877929688 33.02167129516602 C 34.83443450927734 31.4040470123291 33.02366638183594 29.5935230255127 31.4057674407959 27.61692428588867 C 29.59833145141602 25.40418815612793 27.98189926147461 23.04207038879395 26.57387542724609 20.55599594116211 C 26.65465545654297 20.37237548828125 26.73691368103027 20.18876457214355 26.81623458862305 20.00515556335449 C 27.81450653076172 17.68613815307617 28.99759101867676 15.45112705230713 30.35405158996582 13.32171821594238 C 30.48771095275879 13.49138832092285 30.63386344909668 13.65002918243408 30.75945472717285 13.82555961608887 C 32.42751312255859 16.15226364135742 33.32164001464844 18.94461822509766 33.3153076171875 21.80747413635254 L 33.3153076171875 23.04868125915527 C 33.31447219848633 23.32919692993164 33.47349548339844 23.58568954467773 33.72512435913086 23.70967864990234 C 33.826416015625 23.7583122253418 33.93739318847656 23.78342056274414 34.04975128173828 23.78312301635742 C 34.21185302734375 23.78303909301758 34.3693733215332 23.72932624816895 34.49776077270508 23.63035774230957 L 35.71032333374023 22.69761848449707 C 41.22742462158203 18.45055770874023 45.05777359008789 12.38294410705566 46.51910400390625 5.575569629669189 C 46.57209777832031 5.330154418945313 46.49605178833008 5.074673652648926 46.31748199462891 4.898184776306152 C 46.13890838623047 4.721695423126221 45.88255310058594 4.648655414581299 45.63777542114258 4.704524993896484 L 40.61933517456055 5.82014274597168 C 38.93563842773438 6.189386367797852 37.19830703735352 6.245155334472656 35.4943962097168 5.984658241271973 L 35.76540756225586 5.604950904846191 C 36.08361434936523 5.161990165710449 36.25424575805664 4.630065441131592 36.25307846069336 4.084656715393066 L 36.25307846069336 3.630036354064941 C 36.25346374511719 2.93635082244873 35.97802352905273 2.270975828170776 35.48744201660156 1.780535221099854 C 34.99686431884766 1.290094494819641 34.33141326904297 1.014838218688965 33.63772583007813 1.015423059463501 C 32.72669219970703 1.019487023353577 31.88249206542969 1.494227051734924 31.40575790405273 2.270583629608154 L 30.28132820129395 4.116237163543701 C 30.22183799743652 4.080984115600586 30.15941047668457 4.052340984344482 30.10139083862305 4.015618801116943 L 27.82902526855469 2.59594202041626 C 27.51301383972168 2.398304224014282 27.09906578063965 2.468715667724609 26.86617088317871 2.759722232818604 L 23.92840385437012 6.431932926177979 C 23.68294143676758 6.7387375831604 23.72242546081543 7.184390068054199 24.01800727844238 7.443260192871094 L 26.77877235412598 9.861776351928711 C 25.6788330078125 11.52316474914551 24.67468643188477 13.24603366851807 23.77123641967773 15.02195262908936 C 22.86673927307129 13.24039459228516 21.86010551452637 11.51256275177002 20.75635528564453 9.847085952758789 L 23.52005577087402 7.428569793701172 C 23.81609344482422 7.16962718963623 23.85559272766113 6.723434925079346 23.60965728759766 6.41650915145874 L 20.67189025878906 2.744298696517944 C 20.43899536132813 2.45329213142395 20.02504920959473 2.382879972457886 19.70903587341309 2.580518007278442 L 17.43373489379883 4.000929832458496 C 17.37571334838867 4.037652492523193 17.31328582763672 4.065560340881348 17.2537956237793 4.101548194885254 L 16.12936782836914 2.255895376205444 C 15.65321731567383 1.478835582733154 14.80873107910156 1.003654956817627 13.89739894866943 0.9999995827674866 C 13.20364761352539 0.9996092915534973 12.5381965637207 1.275028705596924 12.04763889312744 1.765586137771606 C 11.55708026885986 2.256143569946289 11.28166103363037 2.921594381332397 11.28205108642578 3.615347862243652 L 11.28204917907715 4.069967269897461 C 11.28087139129639 4.615036964416504 11.45122718811035 5.146659374237061 11.76898384094238 5.589527606964111 L 12.04072856903076 5.969968795776367 C 10.33677673339844 6.229760646820068 8.599576950073242 6.173995971679688 6.915793895721436 5.805454254150391 L 1.893677949905396 4.689102172851563 C 1.649289727210999 4.6346435546875 1.393994927406311 4.708439826965332 1.216354131698608 4.884891510009766 C 1.038713574409485 5.061342239379883 0.963204026222229 5.316136360168457 1.016019821166992 5.560884475708008 C 2.477330684661865 12.36806869506836 6.307704925537109 18.43545150756836 11.82479953765869 22.68219375610352 L 13.0373649597168 23.61566925048828 C 13.25917911529541 23.78642654418945 13.55877304077148 23.81624221801758 13.80989360809326 23.69255447387695 C 14.06101226806641 23.56886672973633 14.21998596191406 23.31318664550781 14.21981716156006 23.03325653076172 L 14.21981716156006 21.79278564453125 C 14.21475696563721 18.93069458007813 15.10906600952148 16.13935089111328 16.77641296386719 13.81307220458984 C 16.90199661254883 13.63754272460938 17.04888725280762 13.47890281677246 17.18255424499512 13.30924606323242 C 18.53871536254883 15.43882369995117 19.72178268432617 17.67380714416504 20.72035980224609 19.99266815185547 C 20.80114936828613 20.18215370178223 20.8892822265625 20.36796951293945 20.97227668762207 20.55672073364258 C 19.56041526794434 23.04762268066406 17.94033050537109 25.41460227966309 16.12936592102051 27.6323356628418 C 14.51107215881348 29.60929298400879 12.69980335235596 31.42006874084473 10.72240734100342 33.03782653808594 L 8.356766700744629 34.97528457641602 C 6.539970397949219 36.46226501464844 4.85771656036377 38.10642242431641 3.329521179199219 39.88869476318359 L 1.551428079605103 41.96276473999023 C 1.195794701576233 42.37871551513672 1.000216960906982 42.90789413452148 0.9998618960380554 43.45515060424805 L 0.9998620748519897 44.25863647460938 C 0.9990710020065308 45.18614196777344 1.557488083839417 46.02265167236328 2.41439151763916 46.37760543823242 C 3.271295547485352 46.73256301879883 4.257664680480957 46.53594207763672 4.912969589233398 45.87954711914063 L 7.645093441009521 43.14889526367188 C 8.92696475982666 41.86655807495117 10.27894115447998 40.65629577636719 11.69481945037842 39.52367782592773 L 12.17733383178711 39.13810348510742 C 15.3480806350708 36.60037612915039 18.20228004455566 33.69069671630859 20.67849731445313 30.4716854095459 C 21.79421424865723 29.0168571472168 22.82701110839844 27.50027656555176 23.7719669342041 25.92916297912598 C 24.71418952941895 27.49504661560059 25.74404716491699 29.0064811706543 26.85662841796875 30.45627212524414 C 29.33308601379395 33.67509078979492 32.187255859375 36.58473968505859 35.3577995300293 39.1226921081543 L 35.84031677246094 39.50899887084961 C 37.2560920715332 40.64175415039063 38.60829544067383 41.85175323486328 39.89076995849609 43.13347244262695 L 42.62215805053711 45.86486434936523 C 43.2778205871582 46.52059555053711 44.26397705078125 46.71669387817383 45.12062072753906 46.36169052124023 C 45.97727203369141 46.00667953491211 46.53563690185547 45.17050933837891 46.5352668762207 44.24320983886719 L 46.53526306152344 43.43973159790039 C 46.53499984741211 42.89268112182617 46.33940124511719 42.36370468139648 45.98370361328125 41.94807815551758 Z M 34.81503677368164 21.53059196472168 L 34.7841911315918 21.55776405334473 C 34.77204895019531 20.78501892089844 34.70109558105469 20.01432037353516 34.57193756103516 19.25234794616699 C 38.04039764404297 15.60666561126709 40.86700820922852 11.40039825439453 42.93208694458008 6.811639785766602 L 44.81740570068359 6.393007755279541 C 43.26148223876953 12.4123010635376 39.7414665222168 17.74028015136719 34.81504440307617 21.53279495239258 Z M 32.65871429443359 3.034404039382935 C 32.85112380981445 2.746042490005493 33.16005325317383 2.556288003921509 33.50425338745117 2.515047073364258 C 33.84844970703125 2.473805904388428 34.19346618652344 2.585206031799316 34.44855117797852 2.819948196411133 C 34.66432189941406 3.034186840057373 34.78521728515625 3.325973272323608 34.78418731689453 3.630036354064941 L 34.7841911315918 4.084656238555908 C 34.78448867797852 4.323607921600342 34.70972442626953 4.556617736816406 34.57046890258789 4.750794410705566 L 33.91681671142578 5.665909290313721 C 33.11436462402344 5.448575496673584 32.33259201049805 5.161034107208252 31.58055877685547 4.806613922119141 L 32.65871429443359 3.034404039382935 Z M 27.60502052307129 4.187478542327881 L 29.3228816986084 5.259763717651367 C 32.78705215454102 7.411331176757813 36.95370101928711 8.127202987670898 40.93734741210938 7.25524377822876 L 41.12389373779297 7.213379383087158 C 39.31438064575195 10.9706506729126 36.96963882446289 14.44570350646973 34.16285705566406 17.53008651733398 C 33.35486602783203 14.75643825531006 31.76966285705566 12.27210140228271 29.59462356567383 10.37074375152588 L 25.51406288146973 6.802091121673584 L 27.60502052307129 4.187478542327881 Z M 27.89879989624023 10.84005260467529 L 28.62663078308105 11.47681427001953 C 28.87780952453613 11.69714736938477 29.10548782348633 11.94024658203125 29.34050941467285 12.17747211456299 C 27.94670677185059 14.32962036132813 26.72589874267578 16.58900260925293 25.68960189819336 18.93432807922363 C 25.3223762512207 18.23221015930176 24.96984481811523 17.52420806884766 24.63861083984375 16.8044548034668 C 24.62098503112793 16.76699829101563 24.60189056396484 16.73101043701172 24.58426094055176 16.69355392456055 C 25.55904197692871 14.6718578338623 26.66655349731445 12.7169075012207 27.89954376220703 10.84150886535645 Z M 12.96465587615967 4.736106395721436 C 12.8254861831665 4.541884422302246 12.75073528289795 4.308903694152832 12.75093269348145 4.069967269897461 L 12.75093269348145 3.615347623825073 C 12.75082397460938 3.31211256980896 12.87162399291992 3.021348476409912 13.08657360076904 2.807461023330688 C 13.34166145324707 2.57271933555603 13.68667507171631 2.461319446563721 14.03087425231934 2.502561092376709 C 14.37507057189941 2.543802738189697 14.68399906158447 2.73355770111084 14.87640953063965 3.021918296813965 L 15.95530414581299 4.794127464294434 C 15.2031717300415 5.149107933044434 14.42113018035889 5.436905860900879 13.61831188201904 5.654160022735596 L 12.96465587615967 4.736106395721436 Z M 12.72008609771729 21.51810455322266 C 7.793783664703369 17.72518157958984 4.273805618286133 12.39701461791992 2.717719554901123 6.377591609954834 L 4.603034496307373 6.796950340270996 C 6.668953895568848 11.38577079772949 9.496297836303711 15.5920238494873 12.96539306640625 19.23766136169434 C 12.83546733856201 19.99956893920898 12.76377296447754 20.77027130126953 12.75093460083008 21.54307174682617 Z M 13.37227058410645 17.51466178894043 C 10.56534481048584 14.4306755065918 8.220586776733398 10.95584392547607 6.411230564117432 7.198705196380615 L 6.597778797149658 7.239819049835205 C 10.58123302459717 8.112215042114258 14.74786853790283 7.396873950958252 18.21224403381348 5.245810031890869 L 19.93010520935059 4.172055244445801 L 22.02106094360352 6.785933971405029 L 17.94050216674805 10.35532188415527 C 15.76546096801758 12.25667667388916 14.18025875091553 14.74101066589355 13.37227249145508 17.51465606689453 Z M 19.51440811157227 29.5764045715332 C 17.11006164550781 32.70141983032227 14.33871173858643 35.52603530883789 11.26001453399658 37.98942947387695 L 10.77748775482178 38.37575149536133 C 9.319269180297852 39.54265594482422 7.926605224609375 40.78918838500977 6.605854511260986 42.10966110229492 L 3.874468326568604 44.84030914306641 C 3.639089107513428 45.07588958740234 3.284974098205566 45.14646911621094 2.977261543273926 45.01914215087891 C 2.669548988342285 44.89181518554688 2.468844890594482 44.59165191650391 2.468746185302734 44.25863647460938 L 2.468746185302734 43.45515441894531 C 2.468746185302734 43.25840759277344 2.539039611816406 43.06800842285156 2.666966438293457 42.91837310791016 L 4.444395065307617 40.84421157836914 C 5.916494369506836 39.12807083129883 7.536805629730225 37.54487228393555 9.286577224731445 36.11293029785156 L 11.65441131591797 34.17547607421875 C 13.70727062225342 32.4951171875 15.58766174316406 30.61447334289551 17.26775360107422 28.56139755249023 C 18.9113597869873 26.54591369628906 20.40155982971191 24.4100456237793 21.72581672668457 22.1717529296875 C 22.10772514343262 22.94928550720215 22.50823974609375 23.71628952026367 22.9273624420166 24.47276496887207 C 21.90139579772949 26.24606513977051 20.7613468170166 27.95087051391602 19.51440620422363 29.57640075683594 Z M 45.06637954711914 44.24320983886719 C 45.06657791137695 44.57635879516602 44.86598205566406 44.87679672241211 44.55820465087891 45.00431060791016 C 44.25042724609375 45.13182830810547 43.89613342285156 45.06129837036133 43.66065979003906 44.82562255859375 L 40.92926406860352 42.09423065185547 C 39.6085205078125 40.77375793457031 38.21585464477539 39.52722549438477 36.75764083862305 38.36032867431641 L 36.27510452270508 37.97474670410156 C 33.19678115844727 35.51095581054688 30.42547988891602 32.6863899230957 28.02072715759277 29.56172180175781 C 25.62149620056152 26.44021797180176 23.62292289733887 23.03031349182129 22.07174301147461 19.41174125671387 C 20.98699569702148 16.89025497436523 19.69046974182129 14.46525764465332 18.19608688354492 12.16278648376465 C 18.43037223815918 11.92482471466064 18.65878295898438 11.68099021911621 18.90922927856445 11.46139240264893 L 19.63706016540527 10.82536506652832 C 21.023193359375 12.92879772186279 22.25066184997559 15.13258934020996 23.30926895141602 17.41844940185547 C 25.14914321899414 21.4069709777832 27.48714637756348 25.14619064331055 30.26737594604492 28.54672813415527 C 31.94751167297363 30.59954833984375 33.82789993286133 32.47994232177734 35.8807258605957 34.16006088256836 L 38.24855422973633 36.09751510620117 C 39.99833297729492 37.52946090698242 41.61864471435547 39.11266708374023 43.09073257446289 40.82879638671875 L 44.86808395385742 42.90358734130859 C 44.99592208862305 43.05298233032227 45.06623840332031 43.24310302734375 45.06637954711914 43.43973159790039 L 45.06637954711914 44.24320983886719 Z">
  </path>
</svg>