<?xml version="1.0" encoding="utf-8"?>
<svg xmlns="http://www.w3.org/2000/svg" xmlns:xlink="http://www.w3.org/1999/xlink" fill="rgba(251,220,97,1)" width="78px" height="78px" viewBox="0 43.75 59.045 39.731">
  <path d="M 56.72173309326172 56.24103164672852 C 56.73077774047852 56.40348434448242 56.7188606262207 56.56881332397461 56.67802810668945 56.7330322265625 L 53.03600692749023 71.30112457275391 C 52.85236358642578 72.03504943847656 52.1945915222168 72.55110168457031 51.43837356567383 72.55508422851563 L 29.58623886108398 72.66545104980469 C 29.58337211608887 72.66545104980469 29.58072280883789 72.66545104980469 29.57785606384277 72.66545104980469 L 7.72550106048584 72.66545104980469 C 6.965311527252197 72.66545104980469 6.302905082702637 72.14761352539063 6.119258880615234 71.40994262695313 L 2.477236986160278 56.78666687011719 C 2.435298681259155 56.61803436279297 2.423158407211304 56.44807434082031 2.433753490447998 56.28142547607422 C 1.024842977523804 55.83753967285156 0 54.51912689208984 0 52.96541595458984 C 0 51.04838943481445 1.559447526931763 49.48894119262695 3.476475238800049 49.48894119262695 C 5.393503189086914 49.48894119262695 6.952950477600098 51.04838943481445 6.952950477600098 52.96541595458984 C 6.952950477600098 54.04500198364258 6.458297729492188 55.01091003417969 5.683761119842529 55.64903259277344 L 10.24357318878174 60.24327850341797 C 11.39599704742432 61.40453720092773 12.9951753616333 62.07025527954102 14.63121700286865 62.07025527954102 C 16.56568145751953 62.07025527954102 18.41009140014648 61.15157699584961 19.57156372070313 59.6124382019043 L 27.0652961730957 49.68318557739258 C 26.4357795715332 49.05410385131836 26.04597473144531 48.18487548828125 26.04597473144531 47.22647094726563 C 26.04597473144531 45.3094482421875 27.60542297363281 43.75 29.5224494934082 43.75 C 31.43947792053223 43.75 32.99892425537109 45.3094482421875 32.99892425537109 47.22647094726563 C 32.99892425537109 48.15618515014648 32.62986755371094 49.00002670288086 32.03324127197266 49.62446975708008 C 32.03522491455078 49.62712097167969 32.03765487670898 49.62932586669922 32.03963851928711 49.63219833374023 L 39.47907638549805 59.58882141113281 C 40.64010620117188 61.14275360107422 42.49113845825195 62.07047271728516 44.43112182617188 62.07047271728516 C 46.08217239379883 62.07047271728516 47.63478088378906 61.42748641967773 48.80220794677734 60.25983428955078 L 53.39070892333984 55.67133331298828 C 52.59984588623047 55.03342437744141 52.09194946289063 54.05824661254883 52.09194946289063 52.96541595458984 C 52.09194946289063 51.04838943481445 53.65139770507813 49.48894119262695 55.56842422485352 49.48894119262695 C 57.48545074462891 49.48894119262695 59.04489898681641 51.04838943481445 59.04489898681641 52.96541595458984 C 59.04489898681641 54.47762680053711 58.07258987426758 55.76381301879883 56.72173309326172 56.24103164672852 Z M 52.68063354492188 77.85256958007813 C 52.68063354492188 76.93830871582031 51.93942642211914 76.19709777832031 51.02516937255859 76.19709777832031 L 8.203821182250977 76.19709777832031 C 7.28956413269043 76.19709777832031 6.548356533050537 76.93830871582031 6.548356533050537 77.85256958007813 L 6.548356533050537 81.82568359375 C 6.548356533050537 82.73994445800781 7.28956413269043 83.48115539550781 8.203821182250977 83.48115539550781 L 51.02516937255859 83.48115539550781 C 51.93942642211914 83.48115539550781 52.68063354492188 82.73994445800781 52.68063354492188 81.82568359375 L 52.68063354492188 77.85256958007813 Z">
  </path>
</svg>