<?xml version="1.0" encoding="utf-8"?>
<svg xmlns="http://www.w3.org/2000/svg" xmlns:xlink="http://www.w3.org/1999/xlink" fill="rgba(251,220,97,1)" width="78px" height="78px" viewBox="0 0.097 52.881 52.854">
  <path d="M 51.6622314453125 45.69961929321289 C 51.64632797241211 45.68357086181641 51.63042449951172 45.66752243041992 51.61437606811523 45.65176010131836 L 49.57849502563477 43.66214370727539 L 45.86532211303711 39.92584228515625 L 43.11225891113281 37.17276763916016 L 45.55300140380859 34.73202133178711 C 46.00153350830078 34.28089141845703 46.00153350830078 33.5521354675293 45.55300140380859 33.10100555419922 L 42.91560745239258 30.46360778808594 C 42.46446990966797 30.01507759094238 41.73572158813477 30.01507759094238 41.28458786010742 30.46360778808594 L 40.33605575561523 31.41214370727539 L 36.43780517578125 27.05118942260742 L 51.89199829101563 13.21645069122314 C 52.12277221679688 13.00867080688477 52.26027679443359 12.71687889099121 52.27373504638672 12.40672588348389 L 52.82897567749023 1.31348192691803 C 52.84675216674805 0.9861213564872742 52.72486114501953 0.6665688753128052 52.49351119995117 0.4343511164188385 C 52.26129150390625 0.2030009031295776 51.94173812866211 0.0811082050204277 51.6143798828125 0.09889327734708786 L 40.52113723754883 0.6425663828849792 C 40.21098327636719 0.6560134887695313 39.91919326782227 0.7935223579406738 39.7114143371582 1.024294137954712 L 26.4434700012207 15.90011310577393 L 13.15239334106445 1.0588538646698 C 12.94461441040039 0.8280820846557617 12.65282344818115 0.6905733346939087 12.3426685333252 0.6771259307861328 L 1.249425649642944 0.133452981710434 C 0.9220650196075439 0.1156679391860962 0.6025124788284302 0.2375606298446655 0.3702947497367859 0.4689108431339264 C 0.1389445066452026 0.7011285424232483 0.01705186069011688 1.020681023597717 0.03483693301677704 1.348041534423828 L 0.5900774002075195 12.44128608703613 C 0.6035246849060059 12.75143909454346 0.7410335540771484 13.0432300567627 0.9718053340911865 13.25101184844971 L 16.44913482666016 27.13202095031738 L 12.56245231628418 31.42356491088867 L 11.61391639709473 30.47503089904785 C 11.1627836227417 30.0265007019043 10.43403148651123 30.0265007019043 9.982898712158203 30.47503089904785 L 7.345507144927979 33.1124267578125 C 6.896975994110107 33.56355667114258 6.896975994110107 34.29231262207031 7.345507144927979 34.74344253540039 L 9.786251068115234 37.1841926574707 L 7.021615505218506 39.92568969726563 L 1.237859010696411 45.70944595336914 C -0.4167289733886719 47.37054443359375 -0.4115235209465027 50.05854034423828 1.249571084976196 51.71312713623047 C 2.042379140853882 52.50276184082031 3.114832162857056 52.94752502441406 4.233844757080078 52.95070648193359 C 5.357628345489502 52.9544677734375 6.436299800872803 52.50883102416992 7.229830741882324 51.71298217773438 L 15.72038269042969 43.22243118286133 L 18.16112518310547 45.66317749023438 C 18.61225891113281 46.1117057800293 19.34100914001465 46.1117057800293 19.79214477539063 45.66317749023438 L 22.42953872680664 43.02578735351563 C 22.87807083129883 42.57464981079102 22.87807083129883 41.84589767456055 22.42953872680664 41.3947639465332 L 21.52727127075195 40.38838958740234 L 26.44346237182617 36.00430679321289 L 31.35965728759766 40.38838958740234 L 30.41111755371094 41.3369255065918 C 29.96258926391602 41.78805923461914 29.96258926391602 42.51681137084961 30.41111755371094 42.96794891357422 L 33.04851531982422 45.6053352355957 C 33.49965286254883 46.05386734008789 34.22840118408203 46.05386734008789 34.67953872680664 45.6053352355957 L 37.12028121948242 43.16458892822266 L 39.87334823608398 45.91766357421875 L 43.59809112548828 49.64239883422852 L 45.61084365844727 51.6551513671875 C 47.25544738769531 53.32622528076172 49.94331359863281 53.34762573242188 51.6143798828125 51.70300674438477 C 53.28544235229492 50.05854415893555 53.30684280395508 47.37054824829102 51.6622314453125 45.69961929321289 Z M 38.67032623291016 33.05458831787109 L 36.63444137573242 35.09046936035156 L 32.28505706787109 30.74108505249023 L 34.67953109741211 28.60109519958496 L 38.67032623291016 33.05458831787109 Z M 2.811039209365845 11.80507183074951 L 2.348338842391968 2.470090627670288 L 11.68332099914551 2.932791233062744 L 24.82400894165039 17.6235294342041 L 22.14034652709961 20.61951446533203 L 17.2819938659668 15.7611608505249 C 16.7967357635498 15.34559917449951 16.06653785705566 15.40213489532471 15.65097522735596 15.88739204406738 C 15.28009033203125 16.32044982910156 15.28009033203125 16.95912170410156 15.65097522735596 17.39217948913574 L 20.65970802307129 22.35464096069336 L 17.99917984008789 25.35062789916992 L 2.811039209365845 11.80507183074951 Z M 5.575674533843994 49.97785949707031 C 5.214479446411133 50.34137344360352 4.723149299621582 50.54538345336914 4.210708618164063 50.5446662902832 C 3.146786451339722 50.46572494506836 2.348194360733032 49.53916168212891 2.427287101745605 48.47523880004883 C 2.458808660507202 48.04969787597656 2.630442142486572 47.64672088623047 2.915147542953491 47.32889556884766 L 4.071898937225342 46.17214965820313 L 6.778696537017822 48.84424591064453 L 5.575674533843994 49.97785949707031 Z M 8.398148536682129 47.1553840637207 L 5.73762035369873 44.48329544067383 L 7.831340312957764 42.38956832885742 L 10.56127262115479 45.11949920654297 L 8.398148536682129 47.1553840637207 Z M 12.13445281982422 43.41908264160156 L 9.404521942138672 40.68914794921875 L 11.40569972991943 38.81521224975586 L 14.13563060760498 41.54514694213867 L 12.13445281982422 43.41908264160156 Z M 18.95928192138672 43.10676193237305 L 16.53010749816895 40.67758560180664 L 12.16915512084961 36.31663131713867 L 9.786250114440918 33.92215728759766 L 10.78105449676514 32.92734909057617 L 20.03505897521973 42.18135833740234 L 18.95928192138672 43.10676193237305 Z M 19.82684707641602 38.69953918457031 L 17.79096412658691 36.66365051269531 L 37.10871505737305 17.34590911865234 C 37.59397125244141 16.93034553527832 37.65050888061523 16.20014572143555 37.23493957519531 15.71488857269287 C 36.81937789916992 15.22963237762451 36.08917999267578 15.173095703125 35.60392379760742 15.58865833282471 C 35.55866622924805 15.62740993499756 35.51644134521484 15.66963005065918 35.47769546508789 15.71488857269287 L 16.15994453430176 35.03263092041016 L 14.12406349182129 32.99674987792969 L 18.86674118041992 27.69882965087891 L 41.14577102661133 2.944357395172119 L 50.48075103759766 2.481656789779663 L 50.01805114746094 11.8166389465332 L 34.0317497253418 26.10251426696777 L 19.82684707641602 38.69953918457031 Z M 28.10918426513672 34.38485336303711 L 30.59619903564453 32.29113388061523 L 35.02655792236328 36.72149276733398 L 32.99067687988281 38.75736999511719 L 28.10918426513672 34.38485336303711 Z M 36.20644760131836 40.666015625 L 33.85823822021484 43.16459655761719 L 32.86343383789063 42.1697883605957 L 42.1174430847168 32.91577911376953 L 43.11224746704102 33.91058349609375 L 40.67150497436523 36.35133361816406 L 36.20644760131836 40.666015625 Z M 38.65876007080078 41.4873046875 L 41.48123168945313 38.81520843505859 L 43.41300201416016 40.74698257446289 L 40.68307113647461 43.47691345214844 L 38.65876007080078 41.4873046875 Z M 44.32683563232422 47.1553840637207 L 42.23311614990234 45.06166839599609 L 44.96304702758789 42.33173370361328 L 47.05677032470703 44.42545318603516 L 44.32683563232422 47.1553840637207 Z M 49.97178268432617 50.03569412231445 L 49.87924194335938 49.97785949707031 C 49.11506271362305 50.70646667480469 47.91348648071289 50.70646667480469 47.14930725097656 49.97785949707031 L 45.99256134033203 48.82110977172852 L 48.78032684326172 46.17214965820313 L 49.93708038330078 47.32889556884766 C 50.68463134765625 48.07080841064453 50.6999626159668 49.27484512329102 49.97178268432617 50.03569412231445 Z">
  </path>
</svg>